<?xml version="1.0" encoding="UTF-8" standalone="no"?><!DOCTYPE svg PUBLIC "-//W3C//DTD SVG 1.1//EN" "http://www.w3.org/Graphics/SVG/1.1/DTD/svg11.dtd"><svg width="100%" height="100%" viewBox="0 0 1667 417" version="1.1" xmlns="http://www.w3.org/2000/svg" xmlns:xlink="http://www.w3.org/1999/xlink" xml:space="preserve" xmlns:serif="http://www.serif.com/" style="fill-rule:evenodd;clip-rule:evenodd;stroke-linejoin:round;stroke-miterlimit:2;"><rect id="Logo-Codeando-México" serif:id="Logo Codeando México" x="0" y="0" width="1666.67" height="416.667" style="fill:none;"/><g><g id="Logo"><g id="Codeando"><path d="M478.081,168.635c10.688,-0 26.975,2.544 26.975,2.544l0.509,-10.688c-0,0 -15.269,-3.562 -29.011,-3.562c-31.046,-0 -38.681,18.831 -38.681,54.967c0,34.609 7.126,54.459 38.681,54.459c12.215,-0 29.011,-3.563 29.011,-3.563l-0.509,-10.688c-0,-0 -17.814,2.544 -26.975,2.544c-24.43,0 -27.993,-14.25 -27.993,-42.752c0.509,-29.011 4.581,-43.261 27.993,-43.261Z" style="fill:#1d1d1b;fill-rule:nonzero;"/><path d="M546.281,186.957c-24.43,0 -32.573,12.215 -32.573,38.681c-0,27.993 7.125,40.717 32.573,40.717c25.448,-0 32.574,-13.742 32.574,-40.208c-0,-26.466 -9.671,-39.19 -32.574,-39.19Zm0,69.218c-17.813,0 -20.867,-9.161 -20.867,-30.537c-0,-20.867 4.581,-27.993 20.867,-27.993c14.76,0 20.867,8.144 20.867,28.502c0,19.849 -2.544,30.028 -20.867,30.028Z" style="fill:#1d1d1b;fill-rule:nonzero;"/><path d="M637.894,188.993c-2.036,-0.509 -12.215,-2.036 -18.832,-2.036c-23.412,0 -32.064,13.233 -32.064,39.699c-0,33.082 12.215,39.19 26.975,39.19c11.197,-0 22.903,-6.617 22.903,-6.617l-0,5.09l11.197,-0l-0,-106.881l-10.179,-0l-0,31.555Zm-0,61.075c-0,-0 -11.197,5.598 -21.377,5.598c-9.161,0 -17.304,-4.071 -17.304,-28.501c-0,-20.359 5.089,-30.029 20.867,-30.029c6.108,0 15.778,1.527 17.814,2.036l-0,50.896Z" style="fill:#1d1d1b;fill-rule:nonzero;"/><path d="M688.789,186.957c-19.34,0 -32.064,11.197 -32.064,39.699c0,25.957 7.125,39.19 30.537,39.19c12.215,-0 29.52,-2.545 29.52,-2.545l-0.509,-9.161c0,-0 -16.287,1.526 -27.993,1.526c-15.268,0 -19.849,-8.652 -20.358,-24.43l50.387,0l0.509,-8.652c0.509,-24.939 -10.179,-35.627 -30.029,-35.627Zm-20.867,35.118c0,-17.813 7.126,-24.939 20.358,-24.939c13.233,0 18.832,6.617 18.832,24.939l-39.19,0Z" style="fill:#1d1d1b;fill-rule:nonzero;"/><path d="M785.491,249.559l0,-37.154c0,-17.305 -8.143,-24.939 -24.43,-24.939c-11.706,0 -30.028,3.054 -30.028,3.054l0.509,9.67c-0,0 17.813,-2.036 29.01,-2.036c8.653,0 13.233,4.581 13.233,13.742l0,6.108l-24.43,2.035c-15.777,1.527 -22.903,8.144 -22.903,22.903c0,15.269 7.126,23.413 20.867,23.413c14.251,-0 27.993,-6.108 27.993,-6.108c4.072,4.072 8.652,6.108 17.814,6.108l0.509,-9.671c-4.072,-1.018 -8.144,-2.544 -8.144,-7.125Zm-11.197,2.545c0,-0 -13.233,4.58 -24.939,4.58c-7.125,0 -11.197,-4.58 -11.197,-13.742c0,-7.634 3.563,-12.215 13.233,-13.741l22.903,-2.036l0,24.939Z" style="fill:#1d1d1b;fill-rule:nonzero;"/><path d="M833.842,186.957c-11.197,0 -23.412,6.617 -23.412,6.617l0,-5.09l-11.197,-0l0,76.344l11.197,-0l0,-61.584c0,-0 11.706,-5.599 21.376,-5.599c13.742,0 16.287,7.126 16.287,27.993l0,39.699l11.197,-0l0,-39.699c0,-28.502 -4.58,-38.681 -25.448,-38.681Z" style="fill:#1d1d1b;fill-rule:nonzero;"/><path d="M923.419,188.993c-2.036,-0.509 -12.215,-2.036 -18.832,-2.036c-23.412,0 -32.064,13.233 -32.064,39.699c0,33.082 12.215,39.19 27.484,39.19c11.197,-0 22.903,-6.617 22.903,-6.617l-0,5.09l11.197,-0l-0,-106.881l-11.197,-0l-0,31.555l0.509,-0Zm-0,61.075c-0,-0 -11.197,5.598 -21.376,5.598c-9.162,0 -17.305,-4.071 -17.305,-28.501c0,-20.359 5.09,-30.029 20.867,-30.029c6.108,0 15.778,1.527 17.814,2.036l-0,50.896Z" style="fill:#1d1d1b;fill-rule:nonzero;"/><path d="M975.333,186.957c-24.43,0 -32.574,12.215 -32.574,38.681c0,27.993 7.126,40.717 32.574,40.717c25.447,-0 32.573,-13.742 32.573,-40.208c-0,-26.466 -9.67,-39.19 -32.573,-39.19Zm-0,69.218c-17.814,0 -20.868,-9.161 -20.868,-30.537c0,-20.867 4.581,-27.993 20.868,-27.993c14.759,0 20.867,8.144 20.867,28.502c-0,19.849 -3.054,30.028 -20.867,30.028Z" style="fill:#1d1d1b;fill-rule:nonzero;"/></g><g id="México"><path id="M" d="M1073.56,239.38l-23.921,-79.907l-29.519,0l-0,105.355l17.813,-0l0,-83.469l2.545,-0l23.921,78.888l18.323,0l23.412,-78.888l2.035,-0l0,83.469l17.814,-0l-0,-105.355l-29.011,0l-23.412,79.907Z" style="fill:#1d1d1b;fill-rule:nonzero;"/><path id="acento-e" serif:id="acento e" d="M1200.29,164.563l-6.617,-16.796l-36.645,14.251l5.599,14.251l37.663,-11.706Z" style="fill:#1d1d1b;fill-rule:nonzero;"/><path id="e" d="M1176.88,186.957c-21.376,0 -33.082,12.724 -33.082,40.717c-0,26.974 9.161,38.681 32.064,38.681c13.742,-0 30.537,-3.563 30.537,-3.563l-0.509,-13.742c0,-0 -16.286,1.527 -27.992,1.527c-12.215,-0 -16.796,-5.599 -17.305,-16.287l46.824,0l1.018,-12.215c1.018,-23.921 -9.67,-35.118 -31.555,-35.118Zm-15.778,33.591c0,-12.724 4.581,-18.322 15.269,-18.322c11.197,-0 15.269,4.58 15.269,18.322l-30.538,0Z" style="fill:#1d1d1b;fill-rule:nonzero;"/><path id="x" d="M1263.91,188.484l-14.251,25.957l-14.76,-25.957l-18.323,-0l21.886,38.172l-21.886,38.172l18.323,-0l14.76,-25.448l14.251,25.448l18.831,-0l-21.885,-38.172l21.885,-38.172l-18.831,-0Z" style="fill:#1d1d1b;fill-rule:nonzero;"/><rect id="punto-i" serif:id="punto i" x="1295.98" y="157.947" width="17.305" height="18.322" style="fill:#1d1d1b;"/><rect id="i" x="1295.98" y="188.484" width="17.305" height="76.344" style="fill:#1d1d1b;"/><path id="c" d="M1366.72,203.753c6.107,-0 17.813,1.527 17.813,1.527l0.509,-15.269c0,-0 -15.268,-3.054 -22.903,-3.054c-22.903,0 -32.064,11.706 -32.064,38.681c0,29.01 8.652,40.717 31.555,40.717c8.144,-0 23.412,-2.545 23.412,-2.545l-0.509,-15.269c0,-0 -12.215,1.527 -17.813,1.527c-16.287,-0 -18.831,-6.108 -18.831,-24.43c-0,-16.287 3.562,-21.885 18.831,-21.885Z" style="fill:#1d1d1b;fill-rule:nonzero;"/><path id="o" d="M1424.23,186.957c-25.448,0 -34.609,15.269 -34.609,39.699c0,24.939 8.143,39.699 34.609,39.699c26.466,-0 34.1,-15.269 34.1,-39.699c0,-24.43 -8.652,-39.699 -34.1,-39.699Zm0,64.129c-13.742,-0 -16.286,-8.144 -16.286,-24.43c-0,-16.287 3.562,-23.412 16.286,-23.412c12.215,-0 16.287,7.634 16.287,23.412c0.509,15.777 -2.545,24.43 -16.287,24.43Z" style="fill:#1d1d1b;fill-rule:nonzero;"/></g><path id="Simbolo" d="M309.107,107.56c-55.476,-0 -100.774,45.297 -100.774,100.773c0,55.477 45.298,100.774 100.774,100.774c55.476,-0 100.774,-45.297 100.774,-100.774c-0.509,-55.476 -45.807,-100.773 -100.774,-100.773Zm-12.724,148.615l-38.172,-38.171l38.172,-38.172l12.215,12.215l-25.448,25.448l25.448,25.447l-12.215,13.233Zm20.358,-18.322l-12.215,-12.215l26.466,-26.466l-25.448,-25.448l12.215,-12.215l38.172,38.172l-39.19,38.172Z" style="fill:#1d1d1b;fill-rule:nonzero;"/></g></g></svg>